<mxfile>
    <diagram id="vFheOYnqq6ndfr9AzS2k" name="Page-1">
        <mxGraphModel dx="1201" dy="814" grid="0" gridSize="10" guides="1" tooltips="1" connect="1" arrows="1" fold="1" page="1" pageScale="1" pageWidth="1169" pageHeight="1654" background="#ffffff" math="0" shadow="0">
            <root>
                <mxCell id="0"/>
                <mxCell id="1" parent="0"/>
                <mxCell id="11" value="" style="shape=ext;double=1;rounded=0;whiteSpace=wrap;html=1;labelBackgroundColor=none;fontColor=#0066CC;fillColor=none;strokeColor=#007FFF;" vertex="1" parent="1">
                    <mxGeometry x="279" y="194" width="142" height="193" as="geometry"/>
                </mxCell>
                <mxCell id="4" style="edgeStyle=orthogonalEdgeStyle;rounded=0;orthogonalLoop=1;jettySize=auto;html=1;fontColor=#0066CC;strokeColor=#007FFF;" edge="1" parent="1" source="2" target="3">
                    <mxGeometry relative="1" as="geometry"/>
                </mxCell>
                <mxCell id="5" value="hash算法" style="edgeLabel;html=1;align=center;verticalAlign=middle;resizable=0;points=[];labelBackgroundColor=none;fontColor=#0066CC;" vertex="1" connectable="0" parent="4">
                    <mxGeometry x="-0.1884" y="1" relative="1" as="geometry">
                        <mxPoint x="8" y="-17.5" as="offset"/>
                    </mxGeometry>
                </mxCell>
                <mxCell id="9" style="edgeStyle=orthogonalEdgeStyle;rounded=0;orthogonalLoop=1;jettySize=auto;html=1;entryX=0;entryY=0.5;entryDx=0;entryDy=0;fontColor=#0066CC;strokeColor=#007FFF;" edge="1" parent="1" source="2" target="10">
                    <mxGeometry relative="1" as="geometry">
                        <Array as="points">
                            <mxPoint x="160" y="250"/>
                        </Array>
                    </mxGeometry>
                </mxCell>
                <mxCell id="2" value="服务器的公钥&lt;br&gt;服务器的其他信息" style="shape=ext;double=0;rounded=0;whiteSpace=wrap;html=1;fillColor=#a20025;strokeColor=#6F0000;fontColor=#ffffff;" vertex="1" parent="1">
                    <mxGeometry x="104" y="90" width="111" height="81" as="geometry"/>
                </mxCell>
                <mxCell id="7" value="CA的私钥加密" style="edgeStyle=orthogonalEdgeStyle;rounded=0;orthogonalLoop=1;jettySize=auto;html=1;fontColor=#0066CC;strokeColor=#007FFF;labelBackgroundColor=none;" edge="1" parent="1" source="3" target="6">
                    <mxGeometry x="-0.0208" y="19" relative="1" as="geometry">
                        <mxPoint y="1" as="offset"/>
                    </mxGeometry>
                </mxCell>
                <mxCell id="3" value="信息摘要" style="shape=ext;double=1;rounded=0;whiteSpace=wrap;html=1;fillColor=#1ba1e2;fontColor=#ffffff;strokeColor=none;" vertex="1" parent="1">
                    <mxGeometry x="294" y="94.5" width="115" height="72" as="geometry"/>
                </mxCell>
                <mxCell id="12" style="edgeStyle=orthogonalEdgeStyle;rounded=0;orthogonalLoop=1;jettySize=auto;html=1;entryX=1;entryY=0.5;entryDx=0;entryDy=0;fontColor=#0066CC;strokeColor=#007FFF;" edge="1" parent="1" source="6" target="8">
                    <mxGeometry relative="1" as="geometry">
                        <Array as="points">
                            <mxPoint x="563" y="341"/>
                        </Array>
                    </mxGeometry>
                </mxCell>
                <mxCell id="6" value="数字签名" style="shape=ext;double=1;rounded=0;whiteSpace=wrap;html=1;fillColor=#0050ef;fontColor=#ffffff;strokeColor=none;" vertex="1" parent="1">
                    <mxGeometry x="505" y="94.5" width="115" height="72" as="geometry"/>
                </mxCell>
                <mxCell id="8" value="数字签名" style="shape=ext;double=1;rounded=0;whiteSpace=wrap;html=1;fillColor=#0050ef;fontColor=#ffffff;strokeColor=none;" vertex="1" parent="1">
                    <mxGeometry x="294" y="305" width="115" height="72" as="geometry"/>
                </mxCell>
                <mxCell id="10" value="服务器的公钥&lt;br&gt;服务器的其他信息" style="shape=ext;double=0;rounded=0;whiteSpace=wrap;html=1;fillColor=#a20025;strokeColor=#6F0000;fontColor=#ffffff;" vertex="1" parent="1">
                    <mxGeometry x="296" y="209" width="111" height="81" as="geometry"/>
                </mxCell>
                <mxCell id="13" value="数字证书" style="text;html=1;align=center;verticalAlign=middle;resizable=0;points=[];autosize=1;fontColor=#0066CC;" vertex="1" parent="1">
                    <mxGeometry x="323" y="394" width="58" height="18" as="geometry"/>
                </mxCell>
                <mxCell id="14" value="" style="shape=ext;double=1;rounded=0;whiteSpace=wrap;html=1;labelBackgroundColor=none;fontColor=#0066CC;fillColor=none;strokeColor=#007FFF;" vertex="1" parent="1">
                    <mxGeometry x="88.5" y="458" width="142" height="193" as="geometry"/>
                </mxCell>
                <mxCell id="24" style="edgeStyle=orthogonalEdgeStyle;rounded=0;orthogonalLoop=1;jettySize=auto;html=1;labelBackgroundColor=none;strokeColor=#007FFF;fontColor=#0066CC;" edge="1" parent="1" source="15" target="23">
                    <mxGeometry relative="1" as="geometry"/>
                </mxCell>
                <mxCell id="15" value="数字签名" style="shape=ext;double=1;rounded=0;whiteSpace=wrap;html=1;fillColor=#0050ef;fontColor=#ffffff;strokeColor=none;" vertex="1" parent="1">
                    <mxGeometry x="103.5" y="569" width="115" height="72" as="geometry"/>
                </mxCell>
                <mxCell id="20" style="edgeStyle=orthogonalEdgeStyle;rounded=0;orthogonalLoop=1;jettySize=auto;html=1;labelBackgroundColor=none;strokeColor=#007FFF;fontColor=#0066CC;" edge="1" parent="1" source="16" target="19">
                    <mxGeometry relative="1" as="geometry"/>
                </mxCell>
                <mxCell id="16" value="服务器的公钥&lt;br&gt;服务器的其他信息" style="shape=ext;double=0;rounded=0;whiteSpace=wrap;html=1;fillColor=#a20025;strokeColor=#6F0000;fontColor=#ffffff;" vertex="1" parent="1">
                    <mxGeometry x="105.5" y="473" width="111" height="81" as="geometry"/>
                </mxCell>
                <mxCell id="17" value="数字证书" style="text;html=1;align=center;verticalAlign=middle;resizable=0;points=[];autosize=1;fontColor=#0066CC;" vertex="1" parent="1">
                    <mxGeometry x="132.5" y="658" width="58" height="18" as="geometry"/>
                </mxCell>
                <mxCell id="27" style="edgeStyle=orthogonalEdgeStyle;rounded=0;orthogonalLoop=1;jettySize=auto;html=1;labelBackgroundColor=none;strokeColor=#007FFF;fontColor=#0066CC;" edge="1" parent="1" source="19" target="26">
                    <mxGeometry relative="1" as="geometry"/>
                </mxCell>
                <mxCell id="19" value="信息摘要" style="shape=ext;double=1;rounded=0;whiteSpace=wrap;html=1;fillColor=#1ba1e2;fontColor=#ffffff;strokeColor=none;" vertex="1" parent="1">
                    <mxGeometry x="308" y="477.5" width="115" height="72" as="geometry"/>
                </mxCell>
                <mxCell id="21" value="hash算法" style="text;html=1;align=center;verticalAlign=middle;resizable=0;points=[];autosize=1;fontColor=#0066CC;" vertex="1" parent="1">
                    <mxGeometry x="236" y="490" width="60" height="18" as="geometry"/>
                </mxCell>
                <mxCell id="28" style="edgeStyle=orthogonalEdgeStyle;rounded=0;orthogonalLoop=1;jettySize=auto;html=1;entryX=0.007;entryY=0.5;entryDx=0;entryDy=0;entryPerimeter=0;labelBackgroundColor=none;strokeColor=#007FFF;fontColor=#0066CC;" edge="1" parent="1" source="23" target="26">
                    <mxGeometry relative="1" as="geometry"/>
                </mxCell>
                <mxCell id="23" value="信息摘要" style="shape=ext;double=1;rounded=0;whiteSpace=wrap;html=1;fillColor=#1ba1e2;fontColor=#ffffff;strokeColor=none;" vertex="1" parent="1">
                    <mxGeometry x="308" y="569" width="115" height="72" as="geometry"/>
                </mxCell>
                <mxCell id="25" value="CA公钥解密" style="text;html=1;align=center;verticalAlign=middle;resizable=0;points=[];autosize=1;fontColor=#0066CC;" vertex="1" parent="1">
                    <mxGeometry x="228.5" y="584" width="75" height="18" as="geometry"/>
                </mxCell>
                <mxCell id="30" style="edgeStyle=orthogonalEdgeStyle;rounded=0;orthogonalLoop=1;jettySize=auto;html=1;labelBackgroundColor=none;strokeColor=#007FFF;fontColor=#0066CC;" edge="1" parent="1" source="26" target="29">
                    <mxGeometry relative="1" as="geometry"/>
                </mxCell>
                <mxCell id="26" value="相同？" style="html=1;whiteSpace=wrap;aspect=fixed;shape=isoRectangle;labelBackgroundColor=none;strokeColor=#007FFF;fillColor=none;fontColor=#0066CC;" vertex="1" parent="1">
                    <mxGeometry x="465" y="510" width="150" height="90" as="geometry"/>
                </mxCell>
                <mxCell id="29" value="正确得到服务器的公钥，使用该公钥进行通信" style="shape=ext;double=0;rounded=0;whiteSpace=wrap;html=1;labelBackgroundColor=none;strokeColor=#007FFF;fillColor=none;fontColor=#0066CC;" vertex="1" parent="1">
                    <mxGeometry x="675" y="514.5" width="120" height="80" as="geometry"/>
                </mxCell>
                <mxCell id="31" value="是" style="text;html=1;align=center;verticalAlign=middle;resizable=0;points=[];autosize=1;fontColor=#0066CC;" vertex="1" parent="1">
                    <mxGeometry x="626" y="530" width="22" height="18" as="geometry"/>
                </mxCell>
            </root>
        </mxGraphModel>
    </diagram>
</mxfile>